<?xml version="1.0" standalone="no"?>
<!DOCTYPE svg PUBLIC "-//W3C//DTD SVG 20010904//EN"
 "http://www.w3.org/TR/2001/REC-SVG-20010904/DTD/svg10.dtd">
<svg version="1.0" xmlns="http://www.w3.org/2000/svg"
 width="1024.000000pt" height="1024.000000pt" viewBox="0 0 1024.000000 1024.000000"
 preserveAspectRatio="xMidYMid meet">

<g transform="translate(0.000000,1024.000000) scale(0.100000,-0.100000)"
fill="#000000" stroke="none">
<path d="M4665 9473 c-24 -6 -125 -72 -125 -81 0 -4 -13 -22 -28 -40 l-28 -34
-40 17 c-21 9 -46 18 -54 20 -8 1 -33 8 -55 14 -71 18 -254 13 -280 -9 -7 -6
-15 -7 -18 -3 -4 3 -7 1 -7 -6 0 -7 -4 -9 -10 -6 -5 3 -10 1 -10 -5 0 -6 -4
-9 -9 -6 -14 9 -103 -75 -97 -91 3 -8 2 -12 -3 -8 -9 5 -32 -49 -39 -90 -6
-42 -6 -152 1 -200 4 -29 20 -67 36 -91 l29 -42 -22 -10 c-11 -6 -59 -23 -106
-38 -47 -15 -114 -40 -150 -56 -36 -17 -89 -41 -119 -54 -62 -29 -46 -37 -171
89 -42 42 -82 77 -88 77 -7 0 -12 4 -12 9 0 13 -192 159 -260 199 -83 48 -290
153 -290 147 0 -3 -10 1 -23 10 -12 8 -32 16 -42 18 -11 2 -30 8 -42 15 -12 7
-32 12 -46 12 -13 0 -27 3 -31 8 -4 4 -11 7 -14 8 -4 0 -14 4 -22 7 -8 4 -26
9 -40 11 -48 9 -70 15 -78 20 -5 3 -30 7 -58 11 -27 3 -76 10 -109 16 -34 6
-65 9 -70 8 -6 -2 -37 1 -70 5 -52 6 -183 0 -390 -19 -95 -9 -156 -21 -164
-32 -3 -5 -19 -9 -36 -11 -30 -3 -127 -27 -155 -39 -8 -3 -17 -7 -20 -8 -3 -1
-20 -6 -37 -10 -18 -4 -33 -12 -33 -17 0 -5 -4 -7 -9 -3 -5 3 -12 1 -16 -5 -3
-5 -14 -10 -24 -10 -16 0 -203 -89 -256 -122 -227 -141 -431 -308 -555 -454
-86 -101 -135 -165 -135 -173 0 -3 -9 -16 -20 -29 -24 -27 -34 -47 -97 -173
-65 -131 -97 -210 -93 -231 2 -10 0 -18 -4 -18 -10 0 -11 -6 -18 -159 -3 -89
-1 -148 7 -175 19 -68 57 -139 99 -185 34 -37 44 -71 22 -71 -11 0 -88 -161
-96 -198 -2 -10 -10 -35 -19 -56 -13 -31 -15 -73 -13 -225 2 -183 2 -187 31
-246 53 -108 133 -206 227 -278 33 -26 139 -77 159 -77 9 0 21 -5 28 -12 7 -7
12 -9 12 -5 0 3 12 2 27 -4 30 -11 126 -24 184 -24 0 0 3 -36 5 -80 13 -232
13 -226 34 -290 17 -51 71 -159 82 -163 4 -2 8 -10 8 -18 0 -8 5 -14 10 -14 6
0 10 -7 10 -15 0 -8 24 -39 54 -70 30 -30 52 -55 49 -55 -3 0 12 -14 33 -31
149 -119 329 -158 524 -114 87 20 85 21 115 -31 77 -135 203 -190 375 -163 96
15 103 16 123 24 13 6 21 -2 38 -36 29 -64 67 -130 84 -149 8 -9 15 -20 15
-24 0 -4 20 -36 45 -70 25 -35 45 -66 45 -69 0 -8 -64 -43 -93 -51 -15 -3 -27
-11 -27 -16 0 -6 -5 -10 -10 -10 -14 0 -29 -12 -101 -82 -32 -32 -59 -61 -59
-65 0 -4 -14 -23 -30 -42 -28 -31 -34 -44 -31 -63 0 -5 -3 -8 -8 -8 -17 0 -61
-153 -65 -225 l-1 -30 -190 -6 c-104 -3 -197 -9 -205 -12 -8 -4 -27 -8 -42
-11 -15 -2 -61 -16 -102 -30 -46 -16 -106 -28 -153 -31 -157 -9 -269 -32 -301
-63 -8 -7 -18 -10 -23 -7 -5 4 -9 1 -9 -4 0 -6 -6 -11 -13 -11 -19 0 -92 -79
-115 -125 -22 -45 -39 -124 -41 -200 -1 -43 18 -228 34 -335 3 -19 12 -84 21
-145 9 -60 21 -145 28 -188 10 -61 10 -77 0 -77 -17 0 -84 -69 -95 -98 -10
-25 -4 -127 10 -165 4 -12 6 -32 5 -44 0 -13 1 -23 5 -23 3 0 7 -12 7 -27 1
-16 4 -48 7 -73 3 -25 10 -97 17 -160 6 -63 13 -121 15 -128 3 -7 8 -52 11
-100 4 -48 9 -89 13 -92 3 -3 7 -21 9 -40 1 -19 4 -44 6 -55 3 -11 5 -28 5
-37 1 -9 8 -24 17 -32 8 -9 13 -16 10 -16 -3 0 7 -13 22 -29 15 -15 30 -26 35
-24 4 2 10 -3 13 -12 4 -9 13 -14 20 -11 10 4 14 -3 14 -22 1 -15 3 -49 5 -77
2 -27 7 -102 10 -165 3 -63 8 -126 11 -140 8 -46 14 -94 20 -169 3 -40 9 -83
13 -95 4 -11 6 -32 5 -46 -4 -52 39 -273 59 -297 5 -7 7 -13 3 -13 -4 0 3 -18
14 -40 33 -64 115 -145 173 -170 47 -21 62 -22 182 -17 71 4 150 9 175 12 25
3 95 7 155 9 152 5 651 16 875 20 102 2 264 6 360 10 161 5 422 12 792 21 80
1 151 6 156 9 6 3 27 8 48 11 22 3 48 7 59 9 101 19 125 18 214 -13 49 -17 96
-28 105 -25 9 3 22 2 29 -4 6 -5 19 -10 27 -10 8 -1 34 -2 58 -3 23 -1 45 -5
48 -10 10 -17 160 -9 279 15 154 32 256 56 270 64 5 4 16 7 24 9 8 1 17 5 20
10 3 4 13 9 21 11 35 8 160 116 160 139 0 7 5 13 10 13 6 0 10 4 10 9 0 19 45
58 75 65 17 5 50 10 74 13 49 5 59 -2 103 -77 38 -63 153 -180 178 -180 5 0
10 -4 10 -9 0 -5 10 -13 23 -16 12 -4 36 -13 53 -21 17 -7 41 -15 52 -17 12
-2 24 -6 28 -9 3 -4 12 -4 20 -1 8 3 14 1 14 -4 0 -5 12 -9 28 -10 15 0 45 -4
67 -7 92 -15 263 -18 330 -6 39 6 77 11 85 12 27 0 172 28 220 42 60 18 150
64 150 76 0 6 5 10 11 10 6 0 40 29 75 65 58 59 111 144 118 190 1 8 5 18 9
21 4 4 7 17 7 29 0 12 3 25 7 29 8 8 10 15 21 76 5 25 11 50 14 56 4 5 9 28
12 49 3 22 12 78 20 124 8 47 13 88 10 93 -3 4 0 16 5 26 6 11 13 43 16 73 10
97 11 104 19 122 5 10 6 21 2 24 -3 3 -2 11 3 17 5 6 14 45 21 86 27 163 26
160 69 161 87 2 157 9 190 21 20 7 42 11 49 10 6 -2 12 3 12 9 0 7 3 10 6 6 4
-3 38 10 77 29 74 38 227 178 227 208 0 9 4 16 9 16 15 0 98 179 126 274 23
74 27 101 23 169 -3 45 -10 83 -15 84 -6 2 -9 13 -6 23 3 12 0 20 -6 20 -7 0
-11 6 -10 13 5 22 -12 77 -23 77 -6 0 -9 3 -5 6 3 4 -1 13 -9 21 -8 8 -12 18
-9 22 2 5 -5 17 -15 29 -11 12 -20 24 -20 27 0 29 -126 168 -197 216 -59 41
-168 91 -201 93 -15 1 -32 5 -38 9 -20 12 -146 18 -201 9 -43 -7 -50 -6 -45 6
3 9 1 13 -5 9 -6 -4 -10 5 -11 21 -1 42 -11 99 -24 129 -6 16 -10 34 -9 41 1
6 -3 12 -9 12 -5 0 -10 8 -10 17 0 16 -19 76 -40 128 -5 11 -16 43 -26 70 -10
28 -22 53 -26 56 -5 3 -10 15 -13 27 -2 12 -7 28 -12 35 -11 17 -33 77 -39
107 -3 13 -8 27 -12 30 -4 3 -9 14 -10 25 -6 29 -58 124 -77 137 -8 6 41 53
56 53 10 0 150 90 178 114 13 12 27 21 31 21 3 0 21 12 38 28 17 15 48 41 68
57 50 41 222 217 243 247 9 13 27 35 40 49 34 35 161 220 161 235 0 7 3 14 8
16 4 2 24 35 44 73 22 41 43 68 50 66 108 -33 146 -40 211 -36 88 4 141 14
145 26 2 5 10 9 18 9 31 0 105 77 135 142 21 45 25 49 48 42 15 -4 37 -9 51
-10 128 -18 191 -21 233 -11 15 4 39 10 54 13 15 3 33 10 40 16 7 6 13 7 13 4
0 -4 12 0 28 8 15 8 44 22 65 32 20 9 37 20 37 25 0 5 5 9 11 9 20 0 108 92
152 159 47 71 93 163 101 202 38 190 39 209 20 346 l-6 43 39 1 c21 0 56 2 78
4 22 2 48 5 58 5 10 1 31 6 45 12 15 6 36 13 47 15 32 5 167 76 172 90 3 7 11
13 18 13 21 0 120 113 149 170 74 148 101 304 75 446 -16 94 -74 254 -91 254
-5 0 -7 4 -4 9 3 4 -8 29 -24 55 -38 60 -38 76 4 119 19 20 37 45 41 56 3 12
11 21 16 21 5 0 9 9 9 20 0 11 4 20 8 20 27 0 50 218 33 315 -6 33 -13 75 -16
93 -7 55 -58 205 -78 231 -6 7 -12 20 -13 29 -2 8 -11 27 -22 41 -11 15 -22
36 -26 49 -4 12 -12 22 -17 22 -5 0 -9 5 -9 10 0 12 -41 73 -52 78 -5 2 -8 10
-8 17 0 8 -6 18 -14 22 -7 4 -15 13 -17 20 -10 31 -181 211 -258 273 -24 19
-51 42 -60 51 -32 32 -162 128 -181 134 -11 4 -20 11 -20 16 0 5 -6 9 -14 9
-8 0 -16 3 -18 8 -4 10 -86 62 -98 62 -5 0 -10 4 -10 9 0 5 -20 17 -45 27 -25
9 -45 21 -45 25 0 5 -5 9 -11 9 -9 0 -129 54 -181 81 -10 5 -24 9 -31 9 -8 0
-27 7 -44 15 -16 8 -42 16 -57 17 -14 1 -26 5 -26 9 0 7 -78 24 -93 21 -4 -1
-16 2 -26 7 -10 6 -47 13 -82 16 -35 4 -89 10 -119 15 -59 8 -67 9 -260 8 -69
0 -134 0 -145 1 -68 2 -362 -54 -375 -71 -3 -3 -25 -9 -50 -13 -25 -4 -48 -11
-51 -17 -3 -5 -8 -9 -10 -7 -5 3 -78 -21 -109 -36 -116 -57 -145 -70 -152 -67
-4 1 -8 -3 -8 -9 0 -5 -4 -8 -9 -5 -5 3 -14 -1 -21 -9 -7 -8 -18 -15 -25 -15
-6 0 -31 -13 -53 -30 -23 -16 -46 -30 -52 -30 -5 0 -10 -4 -10 -10 0 -5 -4
-10 -10 -10 -12 0 -122 -75 -156 -106 -14 -13 -27 -24 -30 -24 -8 0 -85 -72
-164 -152 -42 -43 -79 -78 -83 -78 -4 0 -15 7 -25 16 -16 14 -215 103 -242
108 -3 1 -9 4 -15 7 -9 6 -110 41 -127 45 -5 1 -10 3 -13 4 -3 1 -9 4 -15 5
-5 1 -11 3 -12 5 -4 2 -38 10 -58 14 -8 1 -44 12 -80 24 -69 22 -145 38 -223
47 -50 5 -87 20 -87 35 0 5 -6 15 -12 22 -7 7 -19 24 -26 38 -7 14 -26 40 -42
59 -17 18 -30 36 -30 40 0 3 -10 18 -23 34 -12 15 -33 41 -47 59 -32 41 -127
138 -134 138 -3 0 -17 10 -32 23 -14 12 -29 23 -32 23 -26 6 -52 18 -52 25 0
4 -44 22 -97 39 -94 30 -213 45 -258 33z m289 -241 c49 -34 111 -88 145 -126
14 -17 36 -40 49 -52 12 -12 22 -26 22 -33 0 -6 4 -11 10 -11 5 0 16 -15 23
-33 8 -18 20 -39 28 -47 8 -8 20 -27 28 -42 8 -15 32 -47 55 -72 41 -45 71
-58 161 -71 22 -3 67 -10 100 -16 33 -6 68 -11 77 -13 10 -1 21 -5 24 -9 4 -4
15 -7 25 -7 10 0 64 -16 121 -36 57 -19 110 -37 118 -39 8 -2 16 -4 18 -5 1
-2 5 -3 10 -4 4 -1 23 -10 42 -18 32 -15 68 -30 80 -32 3 -1 16 -8 30 -16 14
-7 26 -12 28 -11 4 3 164 -80 297 -155 17 -9 82 -55 145 -102 412 -306 649
-583 844 -987 75 -154 81 -169 101 -235 16 -51 26 -75 61 -157 8 -17 14 -40
14 -51 0 -12 5 -24 10 -27 6 -4 8 -10 6 -13 -2 -4 3 -32 11 -62 38 -139 50
-215 68 -415 2 -22 6 -72 10 -111 9 -87 -3 -346 -16 -338 -5 3 -9 0 -9 -5 0
-6 5 -11 11 -11 6 0 8 -9 3 -22 -4 -12 -8 -45 -9 -73 -2 -27 -4 -50 -5 -50 -3
0 -9 -40 -13 -86 -2 -25 -7 -51 -11 -58 -4 -6 -5 -18 -2 -26 3 -8 1 -15 -5
-15 -6 0 -9 -6 -6 -14 3 -8 2 -16 -3 -18 -5 -2 -12 -19 -14 -38 -3 -19 -6 -36
-7 -37 -1 -2 -3 -7 -4 -13 -1 -5 -4 -12 -5 -15 -1 -3 -4 -9 -5 -15 -1 -5 -4
-12 -5 -15 -1 -3 -3 -8 -4 -12 -8 -29 -90 -198 -99 -201 -4 -2 -5 -8 -1 -13 3
-5 0 -9 -6 -9 -6 0 -8 -4 -5 -10 3 -5 1 -10 -4 -10 -6 0 -11 -6 -11 -14 0 -8
-7 -17 -16 -20 -8 -3 -12 -10 -9 -16 3 -5 1 -10 -4 -10 -6 0 -11 -6 -11 -14 0
-8 -7 -17 -16 -20 -8 -3 -13 -10 -9 -15 3 -6 -4 -15 -15 -21 -11 -6 -19 -15
-17 -20 1 -5 -7 -16 -18 -25 -11 -9 -14 -13 -6 -9 8 4 -32 -38 -89 -94 -57
-56 -106 -102 -109 -102 -3 0 -21 -17 -39 -37 -18 -21 -31 -31 -27 -23 3 8 -8
-1 -25 -20 -17 -19 -35 -34 -40 -33 -5 2 -14 -6 -20 -17 -6 -11 -15 -18 -20
-15 -5 3 -15 -4 -23 -15 -7 -11 -17 -17 -20 -14 -4 4 -9 -1 -13 -10 -3 -9 -10
-14 -14 -11 -4 3 -11 -2 -14 -11 -3 -8 -10 -12 -16 -9 -5 3 -10 1 -10 -5 0 -6
-4 -8 -10 -5 -5 3 -10 1 -10 -5 0 -6 -4 -8 -10 -5 -5 3 -10 1 -10 -6 0 -7 -3
-9 -7 -6 -3 4 -11 3 -17 -2 -16 -13 -87 -18 -74 -6 7 7 -74 91 -84 87 -5 -1
-8 3 -8 8 0 6 -6 10 -13 10 -7 0 -20 9 -30 20 -9 11 -24 20 -32 20 -8 0 -15 5
-15 11 0 5 -4 7 -10 4 -5 -3 -10 -2 -10 3 0 5 -21 17 -47 27 -27 10 -52 22
-57 26 -6 5 -16 9 -22 9 -7 0 -25 5 -41 12 -15 6 -31 12 -35 13 -5 2 -9 3 -10
5 -33 26 -336 33 -428 11 -25 -7 -56 -14 -70 -17 -13 -3 -30 -10 -37 -16 -7
-6 -13 -8 -13 -5 0 11 -95 -41 -126 -68 -16 -14 -34 -30 -41 -35 -12 -10 -53
-18 -131 -26 -38 -4 -145 -25 -194 -39 -45 -12 -66 -17 -103 -25 -22 -4 -49
-10 -60 -13 -75 -19 -115 -27 -147 -27 -20 0 -40 -5 -43 -10 -4 -6 -10 -8 -14
-6 -4 3 -32 -2 -62 -10 -61 -17 -75 -20 -141 -32 -27 -5 -48 -7 -48 -5 0 2 -5
1 -12 -3 -7 -4 -21 -9 -32 -10 -23 -2 -44 -8 -66 -17 -8 -4 -24 -8 -35 -10
-11 -1 -24 -5 -30 -9 -5 -3 -26 -9 -45 -14 -50 -11 -50 -11 -52 -14 -4 -3 -34
-9 -88 -15 -25 -3 -52 -8 -60 -12 -13 -5 -36 -10 -77 -15 -7 -1 -13 -5 -13
-10 0 -4 -5 -8 -11 -8 -5 0 -7 6 -3 13 6 9 4 9 -7 -1 -7 -6 -21 -12 -31 -12
-10 0 -18 -5 -18 -11 0 -5 -4 -7 -10 -4 -5 3 -16 3 -22 -2 -7 -4 -20 -9 -28
-11 -99 -22 -214 -22 -230 0 -3 4 -21 8 -40 9 -19 2 -41 7 -49 13 -8 6 -17 10
-20 10 -7 -2 -11 -1 -81 22 -30 10 -63 24 -72 32 -9 8 -21 11 -27 8 -5 -4 -12
-2 -16 4 -4 6 -11 8 -16 5 -5 -4 -9 -2 -9 3 0 9 -47 27 -62 24 -5 -1 -8 3 -8
8 0 6 -8 10 -19 10 -10 0 -24 7 -31 15 -7 9 -15 13 -18 10 -3 -2 -10 2 -16 11
-6 8 -21 16 -34 17 -12 0 -22 4 -22 7 0 11 -69 40 -94 40 -12 0 -26 3 -30 8
-4 4 -13 7 -19 7 -7 0 -11 9 -9 19 2 10 -1 15 -6 12 -6 -3 -13 1 -16 10 -4 9
-2 13 5 8 18 -11 -2 20 -38 60 -18 19 -33 40 -33 46 0 5 -11 17 -25 26 -14 9
-25 23 -25 31 0 8 -4 12 -8 9 -5 -3 -26 15 -47 40 -21 24 -40 42 -43 40 -2 -3
-13 5 -23 17 -10 12 -18 18 -19 14 0 -5 -7 -2 -15 7 -9 8 -22 13 -30 10 -8 -4
-15 -1 -15 6 0 6 -4 8 -10 5 -5 -3 -10 -1 -10 5 0 6 -4 9 -9 5 -5 -3 -13 0
-16 6 -4 5 -13 8 -20 5 -7 -2 -16 -2 -19 2 -7 6 -17 8 -96 18 -39 5 -66 16
-92 37 -21 16 -35 33 -33 38 3 4 -5 15 -17 23 -12 9 -19 16 -15 16 4 0 -5 18
-19 40 -15 22 -31 40 -36 40 -5 0 -7 4 -3 9 3 6 -1 13 -9 18 -8 4 -14 10 -14
13 0 13 -26 60 -34 60 -5 0 -6 5 -3 10 3 6 1 10 -5 10 -6 0 -8 5 -5 10 3 6 1
10 -5 10 -6 0 -8 5 -5 10 3 6 1 10 -5 10 -6 0 -8 5 -5 10 3 6 2 10 -4 10 -6 0
-8 6 -5 14 3 7 -2 21 -11 29 -9 9 -15 18 -14 19 4 9 -23 88 -31 88 -5 0 -7 7
-4 15 4 8 2 15 -4 15 -5 0 -10 6 -9 13 1 37 -4 68 -11 63 -4 -2 -9 12 -10 32
-2 20 -7 39 -12 42 -5 3 -8 14 -6 24 1 10 -1 39 -5 65 -5 25 -11 91 -14 146
-3 55 -9 152 -13 215 -8 122 -7 245 1 295 3 17 10 68 17 115 6 47 15 101 20
120 5 19 13 55 19 80 5 25 13 59 17 75 5 17 9 35 10 40 1 6 3 12 4 15 1 5 3
12 14 55 10 43 96 274 133 360 84 193 257 463 411 645 72 85 314 320 330 320
2 0 28 20 59 45 30 25 58 45 62 45 4 0 16 8 27 18 11 9 29 22 40 29 137 86
182 112 255 149 48 24 89 44 92 44 4 0 34 13 69 29 63 29 116 49 256 92 l73
23 29 -36 c30 -37 106 -82 157 -94 37 -9 195 -13 208 -5 6 3 17 6 25 8 17 2
50 39 50 56 0 6 -3 7 -6 4 -4 -3 -18 3 -32 13 -13 11 -30 20 -36 20 -6 0 -28
11 -49 25 -20 14 -37 22 -37 18 0 -4 -4 -3 -8 2 -4 6 -45 36 -92 67 -47 32
-95 66 -108 77 -28 24 -101 161 -95 179 3 6 0 12 -5 12 -15 0 -7 79 12 126 15
37 23 43 72 59 48 15 65 16 127 6 94 -15 86 -13 132 -40 22 -12 49 -27 60 -33
24 -13 145 -110 198 -157 89 -81 102 -91 119 -91 18 0 25 -15 11 -23 -5 -2 -3
-2 4 -1 7 2 19 -3 26 -11 8 -8 19 -10 27 -5 14 9 23 40 11 40 -4 0 -7 10 -8
22 -1 11 -7 24 -13 28 -7 4 -11 10 -11 14 1 7 -23 66 -45 109 -8 16 -14 32
-14 37 0 5 -5 21 -12 37 -6 15 -10 36 -9 46 1 9 -1 17 -6 17 -4 0 -9 25 -11
54 l-2 55 42 3 c50 3 142 -28 202 -70z m-2809 -91 c61 -6 146 -20 190 -30 44
-11 83 -17 87 -15 5 3 8 0 8 -5 0 -6 9 -11 19 -11 11 0 32 -5 48 -12 27 -11
40 -15 66 -21 6 -2 21 -8 32 -14 11 -6 22 -11 25 -11 10 -1 46 -14 63 -23 10
-6 37 -20 60 -31 79 -40 210 -121 276 -171 117 -89 268 -228 279 -257 1 -4
-23 -25 -55 -46 -32 -21 -60 -41 -63 -44 -3 -3 -17 -11 -32 -19 -15 -8 -37
-23 -47 -33 -11 -10 -37 -29 -57 -43 -55 -37 -114 -89 -221 -192 -105 -102
-88 -98 -161 -36 -15 13 -32 23 -39 23 -6 0 -13 4 -15 9 -8 21 -223 131 -256
131 -12 0 -23 4 -26 9 -8 12 -152 32 -252 35 -84 2 -246 -13 -240 -23 2 -3 -8
-7 -22 -8 -25 -1 -64 -9 -69 -13 -2 -2 -7 -4 -13 -5 -5 -1 -11 -3 -12 -4 -2
-2 -13 -4 -26 -7 -12 -2 -34 -11 -47 -20 -13 -8 -26 -15 -29 -15 -19 2 -190
-91 -228 -124 -13 -11 -34 -27 -48 -36 -29 -19 -155 -144 -185 -183 -11 -14
-28 -36 -38 -48 -10 -13 -25 -38 -33 -56 -7 -18 -20 -40 -29 -48 -8 -9 -15
-24 -15 -35 0 -10 -5 -19 -12 -19 -6 0 -8 -3 -5 -7 4 -3 0 -17 -8 -30 -9 -13
-13 -23 -10 -23 3 0 -1 -13 -10 -30 -8 -16 -16 -33 -16 -37 -1 -5 -6 -17 -12
-28 -13 -23 -14 -26 -26 -85 -12 -63 -14 -250 -2 -250 6 0 8 -6 5 -14 -5 -12
56 -85 73 -87 5 0 16 -2 27 -4 16 -3 18 1 13 35 -3 21 -2 41 1 45 11 11 44
140 53 210 10 73 58 225 71 225 5 0 8 8 8 19 0 10 7 24 16 32 8 7 22 25 30 41
30 58 151 184 240 248 34 25 74 54 88 65 39 29 130 74 139 68 4 -2 7 0 7 4 0
5 10 9 22 10 11 1 24 6 27 11 22 36 327 66 421 42 25 -6 52 -13 60 -14 47 -8
80 -19 80 -25 0 -4 6 -8 13 -8 22 0 164 -73 192 -99 14 -12 25 -20 25 -17 0 4
11 -4 25 -17 14 -13 25 -27 25 -31 0 -9 -128 -170 -142 -180 -6 -3 -9 -10 -8
-14 1 -4 -7 -18 -19 -31 -12 -13 -21 -26 -21 -29 0 -6 -103 -181 -117 -200 -5
-6 -9 -17 -11 -25 -2 -8 -7 -17 -10 -20 -4 -3 -8 -11 -10 -19 -7 -32 -32 -81
-41 -81 -5 0 -15 -17 -22 -37 -7 -21 -20 -54 -31 -74 -37 -73 -128 -361 -153
-489 -51 -261 -64 -404 -60 -670 2 -124 4 -239 4 -257 0 -17 4 -34 9 -37 5 -3
8 -18 6 -33 -1 -16 2 -48 7 -73 6 -25 13 -54 15 -65 12 -55 28 -122 38 -151 5
-18 2 -23 -21 -29 -50 -14 -155 -13 -182 1 -14 8 -31 14 -36 14 -6 0 -18 12
-26 28 -18 29 -33 105 -20 98 7 -5 4 11 -14 89 -1 6 -2 13 -1 17 0 4 -8 14
-19 23 -11 9 -14 13 -6 9 9 -5 12 -3 7 5 -4 6 -11 9 -16 6 -5 -3 -12 -1 -15 5
-8 13 -68 5 -73 -10 -2 -5 -8 -8 -13 -4 -5 3 -9 0 -9 -5 0 -6 -3 -10 -8 -8
-10 3 -63 -39 -57 -45 3 -3 -1 -5 -8 -6 -6 0 -48 -10 -92 -21 -80 -19 -183
-29 -201 -19 -5 3 -21 8 -36 12 -16 3 -31 7 -35 8 -5 2 -16 9 -26 18 -10 8
-19 13 -21 10 -1 -3 -15 9 -30 25 -15 17 -24 23 -20 15 4 -8 -5 -4 -19 9 -15
14 -27 29 -27 35 0 6 -16 27 -35 47 -19 20 -31 39 -28 43 3 3 -2 8 -11 12 -9
3 -13 10 -10 15 3 5 0 9 -6 9 -6 0 -8 5 -5 10 3 6 0 10 -7 10 -9 0 -9 3 2 10
13 8 12 10 -4 10 -15 0 -16 3 -6 15 11 13 8 19 -10 17 -3 0 -7 14 -8 31 -2 18
-7 33 -12 35 -5 2 -5 13 0 28 8 19 6 26 -5 31 -10 3 -12 9 -6 17 5 6 9 53 9
104 1 97 11 142 44 198 11 18 16 39 12 45 -4 8 -3 9 5 5 7 -5 19 10 33 41 12
26 21 51 20 56 -1 4 2 7 8 7 10 0 8 65 -3 76 -13 14 -72 11 -102 -3 -34 -17
-85 -62 -85 -76 0 -5 -14 -22 -32 -38 -31 -30 -33 -30 -137 -28 -73 1 -112 6
-128 16 -12 8 -27 12 -33 8 -5 -3 -10 -2 -10 3 0 5 -19 18 -42 28 -43 19 -168
134 -168 154 0 6 -4 8 -10 5 -6 -4 -7 1 -3 11 4 12 3 15 -6 10 -6 -4 -10 -4
-9 1 1 4 -6 31 -15 59 -13 38 -16 74 -14 147 3 60 1 94 -5 91 -6 -4 -5 2 1 13
6 11 8 23 5 26 -4 3 1 26 11 50 9 24 16 53 15 63 -1 11 -1 22 0 27 1 4 4 12 5
17 1 6 3 11 5 13 1 1 3 9 5 17 1 8 16 40 32 70 l29 54 65 2 c35 1 76 6 90 12
15 6 29 8 32 6 3 -3 14 -1 25 5 10 5 30 12 43 15 13 2 35 9 49 14 28 11 116
93 112 104 -1 5 2 8 6 8 15 0 11 48 -5 61 -13 11 -15 11 -9 1 7 -11 4 -11 -13
0 -12 7 -21 16 -21 20 0 5 -9 8 -21 8 -11 0 -18 -4 -15 -8 3 -5 -1 -9 -9 -9
-8 0 -12 4 -9 8 3 5 -18 -3 -45 -17 -41 -22 -69 -27 -159 -33 -103 -6 -121 -3
-162 24 -8 5 -18 10 -22 10 -3 0 -10 4 -15 9 -5 5 -2 6 7 2 13 -7 13 -6 0 6
-8 7 -17 24 -18 38 -2 14 -7 30 -12 35 -9 12 10 268 23 305 3 8 11 33 17 55
20 64 96 211 145 280 25 35 45 67 45 72 1 4 19 26 40 48 22 22 40 42 40 46 0
10 188 191 250 242 207 168 389 268 640 350 19 6 37 14 40 17 3 3 10 5 15 5 6
1 37 7 70 14 33 8 69 15 80 17 165 23 258 33 266 29 5 -4 9 -2 9 2 0 12 138 9
275 -6z m5915 -1 c145 -12 158 -14 255 -38 232 -57 461 -173 700 -353 135
-101 251 -208 320 -294 22 -28 43 -52 46 -55 13 -12 98 -138 114 -170 10 -19
21 -37 24 -40 28 -23 93 -229 91 -291 0 -20 3 -47 8 -60 11 -29 -1 -154 -17
-189 -21 -46 -38 -71 -46 -70 -4 1 -11 -3 -15 -10 -4 -6 -16 -13 -26 -15 -10
-2 -21 -4 -24 -5 -28 -7 -191 3 -240 16 -98 26 -176 3 -166 -50 4 -25 39 -66
55 -66 5 0 12 -7 15 -16 4 -9 9 -14 12 -11 3 3 36 -10 72 -29 64 -32 120 -47
171 -45 48 2 85 -27 125 -98 21 -38 38 -71 37 -73 -1 -2 2 -15 8 -30 6 -15 13
-48 17 -73 5 -39 3 -45 -13 -46 -10 0 -13 -3 -5 -6 6 -2 12 -16 12 -29 0 -14
4 -33 9 -42 5 -10 11 -40 13 -67 2 -28 7 -56 11 -62 5 -8 3 -13 -4 -13 -7 0
-9 -10 -7 -25 3 -14 1 -28 -4 -31 -5 -3 -7 -12 -4 -20 3 -8 1 -14 -5 -14 -6 0
-7 -4 -4 -10 3 -5 1 -10 -5 -10 -6 0 -8 -4 -5 -10 3 -5 2 -10 -2 -10 -5 0 -17
-17 -28 -37 -23 -46 -54 -83 -69 -83 -6 0 -23 -11 -38 -24 -14 -14 -29 -22
-32 -19 -3 4 -6 1 -6 -5 0 -6 -7 -9 -17 -5 -10 4 -14 2 -10 -4 5 -7 0 -9 -13
-6 -11 3 -20 0 -20 -6 0 -5 -6 -8 -14 -5 -7 3 -53 -2 -102 -12 -127 -24 -143
-23 -174 6 -14 14 -25 28 -23 31 5 12 -86 101 -97 94 -5 -3 -10 -1 -10 5 0 6
-8 10 -17 8 -12 -2 -18 3 -17 14 1 10 -4 14 -12 11 -8 -3 -11 -9 -8 -15 3 -5
-2 -8 -12 -6 -20 3 -44 -34 -44 -70 0 -23 38 -104 53 -110 4 -2 7 -8 7 -14 0
-5 9 -22 20 -38 11 -15 17 -30 13 -34 -3 -3 -1 -6 6 -6 7 0 9 -4 6 -10 -3 -5
-3 -16 2 -22 9 -15 9 -19 11 -71 1 -21 5 -36 10 -34 9 6 6 -181 -3 -206 -4 -9
-5 -28 -3 -42 3 -15 1 -22 -5 -18 -6 4 -8 -2 -5 -15 4 -12 2 -22 -4 -22 -6 0
-8 -7 -4 -15 3 -8 2 -15 -2 -15 -5 0 -16 -19 -27 -42 -10 -24 -23 -46 -29 -50
-6 -4 -11 -11 -11 -15 0 -12 -125 -133 -139 -134 -6 -1 -14 -1 -18 0 -5 0 -8
-4 -8 -9 0 -6 -62 -9 -172 -8 l-173 3 -28 32 c-16 18 -34 30 -40 26 -5 -3 -7
-2 -4 4 9 14 -48 44 -69 36 -10 -4 -33 -21 -50 -38 -25 -26 -32 -42 -38 -93
-4 -34 -4 -67 -1 -72 7 -12 -35 -78 -67 -106 -20 -17 -37 -21 -94 -20 -38 1
-73 4 -79 7 -5 4 -22 9 -36 13 -21 4 -27 12 -25 31 0 14 4 25 8 25 5 0 7 3 6
8 -1 4 4 19 10 34 6 15 9 35 6 43 -4 8 -1 15 4 15 6 0 11 12 12 28 1 40 6 74
13 102 19 70 28 447 14 610 -5 52 -10 120 -13 150 -12 148 -74 459 -96 488 -6
6 -8 12 -5 12 16 0 -135 381 -166 418 -5 7 -20 35 -33 63 -13 27 -37 69 -54
94 -17 25 -28 45 -24 45 4 0 -2 10 -13 23 -11 12 -42 56 -69 97 -27 41 -77
109 -111 151 -35 43 -63 82 -63 88 0 13 31 51 43 51 5 0 29 14 55 32 26 18 48
32 49 31 2 -1 35 13 75 32 40 19 84 37 98 39 93 20 116 24 122 20 4 -2 10 0
13 6 8 14 231 6 305 -10 102 -23 236 -89 292 -143 7 -7 30 -26 51 -42 88 -66
266 -275 267 -312 0 -7 3 -13 8 -13 4 0 16 -24 26 -52 10 -29 23 -64 29 -78
12 -30 18 -58 17 -87 0 -12 5 -25 10 -28 7 -4 7 -13 0 -25 -6 -10 -6 -21 -2
-24 5 -3 7 -26 5 -52 -2 -26 -1 -55 3 -63 4 -9 9 -25 11 -36 2 -11 8 -37 14
-58 9 -34 12 -37 37 -31 32 8 81 54 85 80 1 11 5 24 8 29 4 6 6 25 5 43 0 17
2 32 5 32 3 0 4 39 2 88 -2 48 -3 95 -4 104 0 10 -5 20 -10 23 -5 4 -7 11 -3
16 3 5 0 16 -6 24 -7 8 -9 15 -5 15 4 0 2 7 -5 15 -7 8 -9 15 -5 15 4 0 2 7
-5 15 -7 8 -10 15 -6 15 4 0 0 10 -9 23 -8 13 -12 27 -8 30 3 4 1 7 -5 7 -7 0
-11 3 -10 8 4 12 -34 92 -44 92 -4 0 -8 7 -8 15 0 8 -4 15 -10 15 -5 0 -10 5
-10 10 0 10 -8 22 -37 55 -7 7 -13 17 -13 20 0 8 -17 28 -95 112 -61 66 -254
212 -281 213 -6 0 -17 7 -24 15 -7 9 -15 13 -18 11 -2 -3 -24 6 -48 20 -24 14
-44 23 -44 19 0 -4 -7 -2 -15 5 -8 7 -15 9 -15 5 0 -4 -6 -3 -12 2 -13 10 -67
24 -163 42 -46 9 -242 7 -310 -3 -111 -16 -148 -27 -260 -83 -111 -56 -119
-60 -175 -99 -25 -17 -52 -34 -60 -37 -8 -4 -22 -12 -31 -18 -13 -10 -28 2
-89 64 -40 42 -78 73 -83 70 -6 -3 -7 -1 -3 5 4 6 -4 16 -16 23 -13 7 -33 21
-45 33 -12 12 -33 30 -48 41 -15 11 -32 25 -38 30 -30 26 -86 65 -93 65 -4 0
-30 17 -58 39 -28 21 -66 46 -83 57 -18 10 -33 21 -33 25 0 4 33 38 73 77 115
111 163 152 241 205 34 22 67 47 74 54 7 7 17 13 22 13 5 0 15 6 22 13 33 31
249 128 363 163 28 8 57 18 65 21 8 3 21 7 29 9 8 1 26 6 40 10 63 17 285 42
381 43 58 0 157 -4 220 -9z m1564 -2096 c3 -8 2 -12 -4 -9 -6 3 -10 10 -10 16
0 14 7 11 14 -7z m13 -106 c-3 -8 -6 -5 -6 6 -1 11 2 17 5 13 3 -3 4 -12 1
-19z m0 -50 c-3 -7 -5 -2 -5 12 0 14 2 19 5 13 2 -7 2 -19 0 -25z m-576 -415
c13 -16 12 -17 -3 -4 -10 7 -18 15 -18 17 0 8 8 3 21 -13z m-7608 -870 c-7 -2
-19 -2 -25 0 -7 3 -2 5 12 5 14 0 19 -2 13 -5z m1165 -859 c15 -3 34 -8 42
-11 8 -4 20 -7 25 -8 31 -4 109 -43 133 -65 10 -9 27 -22 38 -28 10 -5 37 -44
58 -86 33 -63 39 -85 40 -140 1 -72 -16 -101 -63 -108 -22 -3 -24 1 -28 41
-10 107 -68 147 -133 91 -20 -17 -21 -25 -14 -77 10 -82 10 -98 0 -100 -5 -1
-12 -6 -15 -12 -4 -6 -18 -13 -31 -15 -14 -2 -27 -5 -30 -6 -19 -7 -89 4 -111
17 -20 12 -25 23 -26 52 -1 37 -24 93 -49 118 -20 21 -63 15 -87 -11 -16 -17
-23 -38 -25 -70 -1 -25 2 -46 7 -46 5 0 7 -9 4 -20 -4 -16 -12 -20 -33 -17
-26 5 -109 51 -121 68 -3 5 -35 8 -72 6 -75 -3 -79 1 -62 68 10 42 79 190 92
198 7 4 13 13 13 20 1 22 128 104 197 128 38 13 187 29 211 22 8 -2 26 -6 40
-9z m3577 -139 c82 -13 232 -64 262 -90 7 -5 41 -32 76 -59 34 -28 83 -77 107
-109 25 -33 50 -65 55 -71 51 -59 121 -310 105 -379 -4 -21 -6 -37 -4 -37 1 0
-4 -16 -12 -35 -8 -19 -14 -37 -15 -40 -1 -23 -41 -88 -67 -110 -18 -15 -32
-31 -32 -37 0 -6 6 -5 15 2 24 20 17 6 -9 -19 -18 -17 -26 -19 -31 -10 -5 7
-4 10 3 5 6 -3 13 -2 17 4 11 18 -15 11 -61 -16 -24 -14 -44 -32 -44 -40 0 -8
-5 -14 -11 -14 -5 0 -8 -4 -5 -8 2 -4 -3 -8 -12 -9 -9 -1 -33 -4 -52 -8 -58
-11 -274 -8 -278 4 -2 6 -11 11 -20 11 -33 0 -170 60 -204 88 -78 66 -146 145
-155 180 -7 28 -5 29 32 36 17 3 44 12 60 20 17 8 42 19 56 26 30 13 49 64 41
105 -5 31 -51 63 -84 59 -13 -1 -35 -3 -50 -3 -14 -1 -40 -13 -57 -27 -17 -14
-31 -23 -31 -19 0 3 -11 -6 -25 -21 -14 -15 -25 -30 -25 -34 0 -17 -32 -19
-49 -2 -25 24 -64 82 -55 82 3 0 0 7 -7 16 -7 9 -14 36 -14 59 -1 38 3 47 37
75 21 18 35 37 32 42 -3 4 0 7 7 6 6 -2 13 2 16 8 4 13 -28 15 -44 2 -9 -7 -9
-1 -1 26 9 28 17 36 35 36 13 0 26 -7 29 -15 4 -8 12 -15 20 -15 14 0 18 12
15 38 -3 20 32 10 46 -13 11 -19 12 -18 13 10 0 39 -23 71 -55 77 -19 4 -37
-4 -68 -28 -48 -39 -68 -43 -60 -14 3 11 10 20 16 20 6 0 7 3 4 7 -4 3 0 15
10 25 9 10 13 18 8 18 -9 0 61 88 90 112 11 9 34 23 50 29 17 7 33 17 36 22 3
4 12 10 20 11 66 13 90 19 93 25 8 12 143 10 231 -4z m-703 -202 c-38 -73 -44
-107 -43 -248 l1 -120 46 -93 c43 -89 54 -102 224 -271 100 -99 181 -188 184
-202 9 -37 34 -191 52 -308 8 -58 20 -122 27 -141 6 -19 12 -39 12 -45 1 -5 5
-40 9 -77 4 -36 9 -90 12 -120 2 -29 6 -69 9 -88 2 -19 4 -48 4 -63 1 -20 5
-26 14 -21 8 5 8 2 -2 -9 -7 -9 -10 -17 -5 -17 5 0 10 -17 11 -37 1 -20 5 -39
10 -42 4 -3 9 -15 10 -26 1 -11 6 -47 12 -80 6 -33 13 -80 16 -105 11 -101 27
-216 32 -230 3 -8 5 -28 4 -45 -1 -23 0 -27 8 -15 9 13 11 13 11 -2 0 -9 -5
-20 -10 -23 -7 -4 -7 -13 0 -26 6 -11 8 -25 4 -31 -4 -7 -3 -8 4 -4 7 4 12 2
12 -3 0 -6 -4 -11 -9 -11 -6 0 -6 -12 -1 -30 13 -44 1 -148 -23 -199 -42 -92
-126 -143 -322 -197 -5 -2 -23 -6 -39 -9 -16 -3 -56 -13 -90 -21 -34 -8 -77
-17 -96 -20 -19 -2 -50 -9 -67 -15 -18 -6 -49 -13 -69 -15 -20 -3 -55 -9 -78
-15 -23 -5 -50 -11 -61 -13 -11 -2 -69 -15 -130 -29 -60 -14 -153 -32 -205
-41 -52 -8 -106 -17 -120 -21 -57 -12 -86 -18 -102 -19 -10 0 -18 -4 -18 -9 0
-4 -4 -6 -9 -3 -5 4 -22 1 -38 -5 -15 -6 -43 -13 -61 -15 -79 -10 -233 -44
-254 -55 -13 -7 -42 -14 -64 -15 -23 -1 -50 -6 -60 -11 -11 -5 -37 -6 -59 -3
-35 4 -41 9 -52 41 -16 50 -41 200 -48 296 l-7 81 58 12 c89 17 164 40 164 49
0 5 10 11 23 15 35 8 97 73 119 124 56 126 3 277 -117 333 -52 24 -140 24
-230 -1 -38 -11 -73 -20 -77 -20 -6 0 -11 43 -22 192 l-5 67 77 17 c153 34
225 81 276 182 39 77 34 196 -11 243 -10 11 -27 29 -38 40 -32 33 -92 60 -142
63 -45 2 -143 -10 -173 -21 -30 -12 -59 -13 -65 -3 -6 10 -10 41 -20 157 l-5
72 42 6 c24 4 54 8 68 10 92 13 137 33 194 85 65 60 90 118 90 211 0 64 -4 81
-24 110 -37 52 -51 65 -102 93 -38 21 -60 26 -115 26 -37 0 -84 -5 -103 -11
-69 -21 -111 -27 -115 -15 -6 17 -13 87 -26 258 -11 133 -11 159 1 173 14 16
46 32 83 41 43 10 64 15 92 19 17 3 93 22 170 41 166 42 174 44 200 49 47 9
82 17 120 27 22 6 49 12 60 14 11 1 49 10 85 19 73 19 90 23 140 31 19 3 42
10 51 15 9 4 18 6 21 4 2 -2 28 2 58 10 30 9 71 18 90 21 19 3 60 12 90 20 30
8 71 17 90 20 19 3 42 7 50 10 17 6 26 8 120 24 116 20 163 29 169 36 10 9 12
-5 3 -23z m-2323 -97 c10 -12 9 -14 -6 -11 -10 2 -21 4 -25 4 -5 1 -8 6 -8 11
0 15 26 12 39 -4z m-1016 -160 c12 -1 43 -15 69 -30 71 -41 165 -61 197 -41
10 6 12 4 6 -4 -5 -9 -1 -12 11 -10 11 1 46 -2 79 -6 126 -18 225 0 359 67 50
25 146 44 146 28 0 -3 44 -5 98 -6 113 -1 269 -11 281 -18 4 -3 26 -8 48 -10
108 -14 149 -55 168 -167 4 -24 9 -53 11 -64 22 -114 44 -255 44 -286 0 -38
-1 -39 -36 -39 -146 0 -294 -99 -311 -208 -18 -123 20 -215 115 -279 53 -36
62 -38 132 -38 41 0 98 3 125 6 l50 7 0 -42 c0 -22 4 -73 7 -112 l7 -71 -84
-6 c-91 -6 -129 -19 -192 -65 -62 -46 -96 -111 -96 -182 0 -54 29 -150 46
-150 4 0 7 -6 7 -13 0 -15 51 -65 95 -92 29 -18 133 -47 144 -41 3 2 35 7 71
11 36 4 69 8 75 8 9 2 17 -48 30 -174 2 -26 6 -53 7 -59 2 -9 -17 -13 -67 -14
-92 -3 -139 -18 -199 -63 -68 -52 -101 -117 -100 -198 1 -64 19 -135 35 -135
5 0 9 -6 9 -13 0 -16 51 -61 108 -94 53 -31 122 -37 207 -18 32 8 62 12 65 10
8 -5 20 -125 25 -253 3 -71 0 -101 -12 -127 -9 -19 -20 -32 -25 -29 -4 3 -8 0
-8 -6 0 -6 -4 -8 -10 -5 -5 3 -10 1 -10 -5 0 -6 -3 -9 -7 -7 -5 3 -54 1 -111
-4 -206 -16 -1902 -31 -1942 -17 -45 16 -56 20 -70 29 -8 5 -22 12 -30 15 -17
6 -83 90 -86 109 -1 7 -9 28 -18 46 -8 19 -18 56 -21 83 -3 27 -12 92 -21 145
-27 173 -44 311 -49 397 -2 28 -5 73 -9 100 -3 27 -9 85 -12 129 -3 44 -9 85
-13 90 -3 6 -7 19 -7 30 -2 22 -10 83 -20 160 -4 28 -8 64 -9 80 -6 78 -17
175 -25 220 -5 28 -11 73 -14 100 -3 28 -8 67 -11 88 -3 20 -7 54 -10 75 -3
20 -10 69 -16 107 -6 39 -12 88 -15 110 -25 237 -33 298 -40 345 -3 19 -7 49
-9 65 -1 17 -8 68 -15 113 -11 72 -10 121 2 228 1 7 17 36 37 65 30 45 48 60
105 87 59 29 81 34 148 35 43 0 78 4 78 8 0 4 52 5 115 2 67 -3 121 0 132 6
15 8 147 7 236 -3z m-989 -104 c2 -4 -2 -34 -10 -67 -15 -62 -16 -158 -3 -210
4 -16 10 -66 14 -110 4 -44 9 -83 11 -86 2 -3 6 -44 9 -90 3 -46 10 -109 15
-139 13 -69 17 -91 24 -160 3 -30 8 -64 10 -76 4 -18 -1 -21 -37 -22 -76 -3
-192 -12 -219 -18 -32 -6 -34 -3 -42 71 -4 33 -13 101 -21 150 -8 50 -16 109
-19 132 -2 23 -7 46 -9 51 -3 4 -8 37 -11 73 -3 35 -10 87 -15 114 -10 54 -8
166 3 205 34 117 88 161 220 180 73 11 74 11 80 2z m5798 -459 c1 -12 6 -23
10 -23 4 0 8 -10 8 -23 0 -13 11 -55 25 -94 24 -70 30 -97 39 -166 3 -20 8
-52 11 -69 5 -32 13 -87 20 -138 2 -14 6 -54 10 -90 3 -36 8 -83 10 -105 6
-52 6 -413 0 -490 -11 -143 -19 -204 -34 -265 -15 -54 -19 -74 -25 -120 -3
-19 -8 -54 -11 -77 -3 -24 -10 -43 -15 -43 -5 0 -9 -8 -9 -17 -1 -45 -3 -59
-9 -73 -6 -16 -11 -42 -16 -80 -2 -14 -4 -27 -5 -30 -2 -3 -5 -25 -7 -50 -2
-25 -5 -67 -8 -95 -2 -27 -7 -58 -11 -67 -4 -10 -4 -25 -1 -34 4 -9 2 -22 -3
-28 -5 -6 -12 -29 -14 -51 -3 -22 -8 -51 -12 -65 -4 -14 -8 -32 -9 -40 -1 -9
-5 -20 -9 -27 -4 -6 -4 -18 -1 -27 3 -9 1 -16 -6 -16 -6 0 -9 -4 -5 -9 3 -5 0
-13 -6 -16 -5 -4 -8 -13 -5 -21 3 -8 2 -14 -2 -14 -8 0 -38 -62 -34 -72 1 -5
-2 -8 -7 -8 -6 0 -24 -20 -42 -45 -18 -25 -38 -45 -46 -45 -7 0 -13 -4 -13 -8
0 -8 -90 -53 -107 -54 -4 0 -18 -4 -30 -9 -23 -8 -23 -6 -6 39 21 58 20 94 -3
125 -47 58 -130 39 -155 -37 -8 -23 -14 -43 -15 -46 0 -3 -5 -14 -9 -25 -5
-11 -9 -34 -9 -52 0 -17 -2 -31 -5 -31 -4 1 -24 -3 -46 -10 -51 -14 -114 -17
-140 -7 -32 13 -54 36 -49 50 3 7 0 16 -6 20 -6 4 -8 15 -5 26 4 10 2 19 -4
19 -6 0 -8 7 -4 16 7 18 -33 100 -50 102 -7 1 -26 4 -43 8 -18 3 -41 1 -53 -5
-24 -13 -45 -82 -35 -114 4 -12 8 -31 10 -42 1 -11 3 -20 4 -20 1 0 3 -10 6
-22 3 -18 0 -21 -14 -16 -9 3 -25 13 -34 21 -10 8 -18 11 -18 7 0 -4 -9 0 -20
10 -11 10 -20 14 -20 9 0 -5 -7 0 -15 10 -8 11 -15 16 -15 12 0 -5 -9 3 -21
17 -11 15 -26 26 -32 24 -7 -1 -11 4 -10 10 2 7 -11 22 -27 35 -17 12 -30 28
-30 35 0 21 23 40 42 35 9 -2 34 2 55 9 21 7 43 14 48 14 6 1 12 3 15 4 3 2
12 4 20 6 68 18 106 29 110 34 3 3 18 7 35 9 16 2 35 8 42 14 7 6 13 8 13 6 0
-3 19 -1 43 4 23 4 56 11 72 14 17 3 34 9 39 14 5 5 15 6 22 3 8 -3 14 -1 14
5 0 6 9 8 20 5 11 -3 20 -1 20 4 0 6 13 10 30 11 16 0 35 4 42 8 7 5 19 9 28
9 37 4 80 17 80 26 0 5 3 8 8 8 4 -1 12 -1 18 0 17 2 114 95 114 109 0 6 4 12
9 12 5 0 13 10 17 22 4 13 16 35 27 49 10 15 17 32 13 37 -3 6 -2 13 3 16 5 4
8 17 7 31 -2 13 1 22 6 19 8 -5 6 43 -9 176 -3 30 -7 71 -9 90 -3 38 -32 243
-38 275 -2 11 -7 34 -11 50 -3 17 -11 64 -16 105 -5 41 -14 109 -20 150 -6 42
-12 101 -14 132 -2 32 -7 63 -10 69 -4 6 -9 25 -10 42 -2 18 -6 43 -10 57 -13
51 -18 107 -16 178 1 42 -2 71 -7 68 -5 -3 -7 6 -4 19 2 14 0 25 -4 25 -5 0
-10 23 -11 51 -1 28 -6 56 -11 61 -6 6 -8 16 -5 23 2 7 -3 27 -12 44 -9 18
-13 36 -10 41 3 6 1 10 -6 10 -7 0 -10 3 -7 6 4 3 0 21 -8 40 -15 36 -13 38
34 37 6 -1 12 3 12 8 0 5 3 8 8 7 25 -5 123 37 157 69 11 10 32 24 47 32 15 8
25 18 23 22 -3 4 4 10 15 14 11 4 28 19 37 33 9 15 26 35 37 45 12 10 14 16 6
12 -10 -4 -9 -2 2 8 10 8 28 36 39 63 l22 49 19 -44 c10 -24 19 -55 20 -68z
m-2849 -144 c21 -26 21 -92 1 -123 -24 -36 -126 -79 -219 -93 -16 -2 -43 -8
-60 -14 -16 -6 -84 -12 -150 -15 -137 -5 -177 7 -206 65 -16 29 -15 34 2 67
10 20 27 43 39 51 23 16 208 60 285 68 93 10 140 16 175 24 50 10 111 -3 133
-30z m2037 -64 c30 -8 74 -15 97 -15 l41 0 4 -56 c1 -31 1 -57 -2 -59 -3 -2
-32 -5 -64 -7 -32 -2 -60 -6 -63 -10 -2 -5 -19 -8 -37 -8 -31 0 -32 2 -32 38
0 21 -3 42 -6 47 -10 19 -19 66 -13 75 8 13 10 13 75 -5z m1240 -115 c133 -32
265 -123 326 -225 31 -51 46 -82 49 -100 0 -5 6 -22 13 -37 19 -46 25 -148 12
-213 -6 -33 -12 -66 -13 -72 0 -7 -4 -13 -8 -13 -7 0 -24 -54 -17 -56 2 0 -5
-8 -15 -18 -9 -10 -14 -22 -11 -28 4 -6 2 -8 -3 -5 -6 4 -14 0 -17 -9 -4 -9
-2 -13 5 -8 7 4 7 0 -1 -15 -6 -12 -15 -19 -21 -16 -5 4 -10 0 -11 -7 0 -7 -2
-18 -2 -23 -1 -11 -106 -115 -116 -115 -3 0 -16 -9 -28 -20 -12 -12 -22 -18
-22 -14 0 3 -11 -1 -25 -10 -14 -9 -25 -14 -25 -11 0 3 -15 -1 -34 -9 -34 -14
-149 -16 -163 -3 -3 4 -1 19 5 34 6 15 11 53 12 83 5 405 1 517 -25 720 -3 25
-8 63 -10 85 -2 22 -6 59 -10 81 l-6 42 54 -3 c29 -1 77 -8 107 -15z m-1012
-232 c15 -112 28 -196 42 -263 14 -71 41 -296 38 -320 -3 -17 -16 -21 -98 -32
-157 -20 -146 -23 -153 50 -7 70 -12 107 -56 362 -17 99 -31 199 -31 221 l0
41 53 7 c28 3 67 8 85 10 19 3 36 7 40 10 3 3 20 6 37 6 l31 0 12 -92z m-5114
-105 c2 -10 8 -56 11 -103 9 -110 11 -126 23 -182 5 -26 9 -58 8 -70 -1 -13 1
-25 5 -28 4 -3 9 -32 12 -65 3 -33 10 -87 16 -120 6 -33 9 -69 7 -80 -2 -11 0
-24 4 -30 4 -5 11 -54 15 -107 8 -110 11 -105 -70 -112 -27 -3 -52 -5 -53 -5
-2 -1 -56 -3 -120 -5 -65 -2 -125 -7 -134 -11 -29 -12 -66 38 -72 98 -25 244
-45 407 -50 415 -2 4 -5 41 -7 82 -1 41 -5 91 -10 110 -4 19 -10 56 -13 82 -2
26 -7 52 -10 57 -8 13 44 53 60 47 7 -3 28 -1 46 5 18 5 67 11 108 14 95 5
194 15 199 21 9 9 20 3 25 -13z m2912 -214 c28 -23 42 -62 33 -95 -10 -37 -74
-98 -114 -109 -38 -11 -35 -10 -66 -23 -71 -29 -377 -44 -421 -21 -31 16 -67
61 -68 82 0 32 29 82 59 100 15 9 48 19 72 23 24 4 49 10 54 14 6 3 28 7 50 9
35 2 121 11 265 28 25 2 47 7 50 9 8 9 70 -4 86 -17z m2294 -416 c0 -16 7 -64
15 -108 21 -107 43 -255 49 -335 3 -36 9 -95 12 -131 12 -131 -30 -231 -118
-283 -24 -14 -88 -37 -143 -51 -55 -13 -120 -30 -145 -36 -25 -7 -56 -13 -70
-15 -14 -2 -79 -19 -144 -39 -66 -19 -129 -36 -140 -38 -12 -2 -28 -7 -36 -10
-8 -4 -51 -16 -95 -28 -44 -12 -84 -24 -90 -27 -5 -4 -14 -7 -20 -9 -46 -9
-131 -25 -148 -27 -12 -1 -30 -6 -39 -10 -9 -4 -22 -9 -30 -10 -7 -2 -39 -11
-71 -20 -31 -10 -82 -18 -112 -19 -30 -1 -55 -4 -55 -8 0 -4 -8 -8 -17 -8 -60
-2 -83 -5 -83 -12 0 -4 -24 -10 -52 -13 -55 -5 -91 -12 -95 -16 -2 -1 -11 -3
-20 -4 -10 -1 -23 -4 -28 -8 -6 -3 -30 -7 -55 -9 -25 -1 -53 -6 -62 -11 -9 -4
-35 -9 -57 -10 -23 -1 -41 -6 -41 -11 0 -5 -7 -7 -15 -4 -8 4 -17 2 -20 -3 -6
-9 -72 -25 -150 -35 -28 -4 -53 -9 -57 -11 -19 -12 -182 -36 -241 -36 -37 1
-65 -3 -63 -7 7 -11 -164 -21 -184 -12 -8 4 -42 4 -75 0 l-60 -7 57 1 c32 0
61 -3 65 -7 6 -6 -357 -9 -882 -8 -116 0 -154 -2 -120 -8 36 -5 7 -8 -105 -8
-85 0 -223 -2 -307 -4 -83 -2 -150 -2 -148 1 4 8 -356 -4 -375 -12 -8 -3 -91
-9 -185 -12 -93 -2 -211 -8 -262 -11 -51 -4 -100 -3 -110 1 -20 9 -29 12 -42
14 -14 2 -100 88 -103 102 -2 8 -7 17 -12 21 -5 3 -10 14 -11 25 -1 10 -5 29
-8 43 -4 14 -9 43 -11 65 -3 22 -10 76 -16 120 -14 95 -18 139 -24 265 -3 52
-8 120 -10 150 -3 30 -8 107 -11 170 l-5 115 109 2 c65 2 112 -1 116 -7 3 -6
11 -10 16 -10 6 0 7 5 4 10 -3 6 5 10 18 10 30 0 37 -15 30 -69 -3 -23 -1 -46
5 -54 7 -7 11 -27 11 -43 -1 -68 4 -119 12 -124 4 -3 10 -41 12 -85 3 -44 7
-87 10 -95 3 -8 5 -22 6 -30 0 -44 9 -98 19 -117 7 -12 12 -34 12 -49 0 -15 7
-35 16 -45 8 -9 16 -23 18 -31 1 -7 28 -41 60 -76 44 -46 81 -73 147 -106 48
-25 90 -42 93 -39 3 3 11 1 18 -5 17 -13 298 -14 588 -2 124 6 504 12 845 13
606 3 622 4 700 26 86 24 102 25 210 22 39 -2 90 2 115 7 25 6 81 17 125 26
44 9 125 27 180 42 109 28 144 34 343 64 74 11 164 29 200 40 37 11 90 24 117
29 28 5 59 12 70 14 62 17 234 58 255 63 14 2 36 9 50 14 14 4 61 16 105 25
279 59 394 103 463 180 65 73 73 86 103 164 12 33 15 199 4 251 -10 47 -18 95
-21 115 -1 11 -3 20 -4 20 -3 0 -8 33 -14 105 -4 41 -8 84 -9 94 -2 16 13 23
103 47 58 14 108 27 113 28 4 0 7 -11 7 -26z m-2211 -349 c13 -9 30 -32 37
-51 13 -30 13 -38 -2 -70 -18 -37 -60 -68 -106 -78 -15 -4 -28 -10 -28 -13 0
-4 -10 -8 -22 -9 -13 -1 -68 -11 -123 -21 -62 -12 -138 -19 -202 -18 -98 1
-103 2 -132 30 -45 43 -44 97 3 140 37 36 76 45 296 72 69 8 145 18 170 23 69
13 84 12 109 -5z m856 -974 c-3 -5 -12 -10 -20 -10 -7 0 -20 -6 -27 -13 -15
-16 -106 -52 -113 -45 -10 9 26 47 40 42 8 -4 15 -1 15 6 0 7 7 10 15 7 8 -4
17 -2 20 4 4 5 10 7 14 5 4 -3 13 -1 21 5 20 12 43 11 35 -1z m-334 -88 c-19
-3 -21 -6 -10 -13 11 -7 11 -9 -3 -9 -10 0 -18 6 -19 13 0 10 -2 10 -6 0 -6
-17 -23 -16 -23 1 0 9 13 13 43 13 23 0 31 -2 18 -5z"/>
<path d="M3214 7487 c-8 -5 -21 -6 -29 -4 -7 3 -16 3 -19 -1 -4 -3 -16 -7 -27
-9 -40 -6 -77 -33 -108 -79 -34 -52 -37 -69 -19 -111 28 -65 81 -78 170 -42
42 17 75 22 161 23 l109 1 30 34 c26 29 30 39 25 74 -6 43 -54 98 -99 113 -31
11 -176 11 -194 1z"/>
<path d="M6440 7491 c-16 -10 -50 -24 -63 -25 -10 -1 -48 -65 -53 -90 -5 -28
22 -83 51 -102 17 -11 46 -15 112 -13 71 1 105 -4 175 -26 100 -31 127 -29
158 15 42 59 36 100 -24 162 -33 35 -96 76 -96 62 0 -4 -7 -1 -15 6 -18 15
-224 24 -245 11z"/>
<path d="M4823 6987 c-2 -4 -8 -5 -13 -2 -4 3 -27 -2 -51 -11 -24 -9 -48 -17
-54 -19 -46 -14 -55 -18 -55 -25 0 -5 -8 -11 -19 -15 -38 -12 -191 -183 -191
-214 0 -5 -3 -11 -7 -13 -12 -5 -113 -220 -113 -239 0 -9 -3 -19 -7 -23 -4 -3
-8 -16 -10 -28 -2 -12 -8 -27 -14 -35 -6 -7 -9 -13 -6 -13 3 0 1 -15 -4 -32
-6 -18 -12 -44 -15 -58 -2 -14 -7 -36 -10 -50 -3 -14 -7 -38 -9 -55 -4 -27 -8
-58 -21 -145 -8 -52 -3 -274 6 -285 5 -7 7 -14 4 -17 -3 -4 4 -26 15 -51 12
-25 21 -49 21 -52 0 -23 155 -174 197 -192 43 -18 173 -66 248 -91 65 -22 334
-24 410 -3 171 46 302 112 377 192 57 60 106 146 110 194 1 14 6 25 12 25 9 0
2 342 -8 370 -3 8 -7 35 -10 60 -2 25 -5 45 -6 45 -1 0 -3 10 -6 23 -2 12 -13
48 -25 80 -22 60 -21 60 -34 107 -9 38 -136 299 -147 303 -4 2 -8 8 -8 13 0
14 -29 48 -106 126 -108 108 -179 134 -372 137 -41 1 -76 -2 -79 -7z"/>
<path d="M3165 6884 c-11 -3 -47 -14 -80 -26 -33 -11 -68 -22 -79 -24 -10 -2
-26 -10 -36 -19 -9 -8 -21 -15 -27 -15 -5 0 -21 -10 -35 -22 -13 -13 -42 -38
-64 -57 -46 -41 -124 -142 -118 -153 3 -5 1 -8 -4 -8 -9 0 -36 -54 -32 -65 1
-3 -6 -17 -14 -31 -9 -13 -14 -24 -11 -24 3 0 -1 -15 -9 -34 -8 -18 -17 -53
-22 -77 -12 -64 -7 -314 5 -314 2 0 4 -11 7 -24 2 -14 9 -30 14 -36 5 -6 11
-20 13 -31 4 -28 31 -84 39 -84 5 0 8 -6 8 -12 0 -30 125 -163 205 -220 28
-19 73 -43 100 -53 28 -10 56 -23 63 -28 6 -5 12 -7 12 -3 0 3 12 1 28 -5 42
-17 72 -21 137 -20 81 1 115 5 115 12 0 3 10 5 23 4 78 -6 224 64 310 149 72
70 107 112 107 126 0 6 4 10 9 10 5 0 17 18 27 40 10 22 21 40 24 40 7 0 29
67 36 105 1 11 8 38 14 60 11 44 11 248 -1 280 -4 11 -15 48 -25 83 -11 34
-23 62 -27 62 -5 0 -6 4 -3 9 3 5 -3 19 -13 32 -10 13 -21 34 -25 47 -4 12
-11 22 -15 22 -4 0 -16 16 -27 35 -10 19 -22 35 -26 35 -5 0 -8 5 -8 11 0 19
-125 129 -147 129 -7 0 -13 5 -13 10 0 6 -5 10 -12 10 -6 0 -19 7 -29 16 -9 8
-26 17 -36 19 -10 2 -19 4 -20 5 -2 2 -7 4 -13 5 -5 1 -11 3 -12 5 -4 2 -35
10 -68 16 -40 8 -223 13 -245 8z m205 -137 c22 -6 72 -26 99 -40 27 -13 104
-98 96 -105 -3 -3 0 -11 6 -18 15 -19 18 -104 3 -152 -7 -24 -24 -58 -38 -76
-14 -19 -23 -36 -21 -40 3 -3 2 -4 -1 -2 -3 2 -28 -11 -56 -29 -147 -97 -328
-52 -406 101 -23 45 -25 174 -4 212 7 12 10 22 7 22 -8 0 13 25 54 67 19 20
51 39 77 45 24 7 44 15 44 18 0 6 116 4 140 -3z"/>
<path d="M6449 6880 c-8 -4 -32 -11 -54 -15 -22 -4 -46 -12 -54 -18 -8 -7 -15
-10 -15 -7 -2 8 -86 -32 -86 -42 0 -4 -7 -8 -15 -8 -8 0 -15 -4 -15 -10 0 -5
-6 -10 -12 -10 -22 0 -158 -139 -158 -161 0 -5 -4 -9 -10 -9 -5 0 -10 -7 -10
-15 0 -8 -4 -15 -9 -15 -8 0 -37 -60 -68 -140 -8 -19 -16 -53 -19 -75 -3 -22
-9 -53 -15 -69 -14 -44 -12 -239 3 -230 6 4 9 3 5 -2 -15 -25 48 -210 76 -222
4 -2 7 -8 7 -13 0 -18 44 -73 105 -132 94 -91 112 -103 215 -141 100 -37 101
-37 208 -43 83 -5 142 2 202 24 8 4 24 8 35 10 21 4 136 65 161 86 27 21 148
143 167 168 22 29 82 151 79 162 -1 4 2 7 8 7 5 0 7 7 4 15 -4 8 -1 15 4 15 6
0 10 12 8 28 -1 15 1 32 5 37 12 16 11 261 -1 285 -1 3 -2 14 -1 25 2 30 -98
217 -144 271 -62 71 -78 87 -113 114 -19 14 -40 31 -48 38 -7 7 -27 18 -44 23
-16 6 -30 15 -30 20 0 5 -8 9 -18 9 -10 0 -22 4 -27 9 -10 10 -19 12 -104 30
-53 11 -203 11 -222 1z m189 -142 c6 -1 12 -5 12 -10 0 -6 5 -8 12 -6 12 4 49
-24 95 -72 71 -76 54 -247 -35 -335 -40 -39 -62 -57 -62 -50 0 3 -13 -1 -28
-9 -87 -45 -206 -28 -281 40 -55 50 -92 134 -85 195 3 19 6 50 8 70 2 20 10
47 20 60 9 13 16 27 16 31 0 16 50 56 96 76 47 21 105 23 232 10z"/>
<path d="M4546 5339 c-56 -44 -52 -103 11 -196 81 -118 219 -187 378 -187 197
0 355 100 409 258 14 41 14 51 2 81 -16 37 -42 55 -79 55 -31 0 -40 -12 -66
-81 -36 -94 -102 -137 -233 -148 -94 -8 -150 5 -232 53 -39 23 -53 39 -73 85
-26 59 -58 101 -78 101 -7 0 -24 -10 -39 -21z"/>
<path d="M5728 4243 c7 -3 16 -2 19 1 4 3 -2 6 -13 5 -11 0 -14 -3 -6 -6z"/>
<path d="M1502 3995 c-17 -8 -36 -24 -41 -37 -8 -23 11 -207 24 -227 3 -6 17
-11 31 -11 21 0 24 5 24 34 0 32 3 34 60 55 34 13 65 31 71 43 24 44 -13 113
-78 147 -28 14 -51 13 -91 -4z m76 -67 c17 -17 15 -45 -3 -52 -32 -12 -61 17
-49 49 7 18 35 20 52 3z"/>
<path d="M2873 4000 c-37 -15 -45 -44 -38 -136 4 -46 15 -98 24 -116 15 -31
19 -33 82 -36 52 -3 68 0 79 13 21 25 0 49 -46 55 -30 4 -40 10 -42 26 -2 18
3 23 31 28 35 7 55 30 36 41 -25 16 -69 23 -69 12 0 -19 -20 16 -20 35 0 13
11 18 48 20 42 3 47 6 50 29 2 20 -2 28 -20 33 -32 8 -89 6 -115 -4z"/>
<path d="M3084 3985 c-24 -24 -25 -29 -18 -102 4 -43 11 -81 16 -84 5 -3 6
-13 2 -22 -9 -26 22 -67 51 -67 22 0 25 4 25 34 0 52 17 53 65 6 37 -37 45
-40 64 -31 28 15 26 29 -8 69 l-28 33 19 38 c17 35 18 42 5 73 -22 51 -57 74
-117 77 -42 1 -55 -3 -76 -24z m114 -79 c4 -31 -17 -43 -47 -26 -39 20 -18 76
23 61 13 -5 22 -19 24 -35z"/>
<path d="M1717 3993 c-10 -10 -8 -83 3 -144 6 -30 13 -70 16 -89 3 -19 9 -39
14 -43 4 -5 40 -7 81 -5 69 3 73 4 80 30 9 35 -4 46 -61 50 l-44 3 -16 90 c-8
50 -19 96 -23 103 -9 13 -39 16 -50 5z"/>
<path d="M2011 3982 c-5 -10 -19 -54 -30 -99 -33 -127 -27 -178 20 -171 15 2
25 12 29 28 5 21 12 25 47 28 36 3 44 -1 63 -27 23 -34 50 -40 70 -16 10 12 4
30 -30 97 -73 144 -98 178 -131 178 -17 0 -32 -7 -38 -18z m67 -104 c19 -19
14 -28 -13 -28 -24 0 -34 18 -18 33 9 10 17 9 31 -5z"/>
<path d="M2423 3993 c-16 -6 -17 -80 -3 -120 8 -22 -5 -12 -61 45 -73 74 -112
91 -126 55 -4 -9 -2 -60 4 -114 12 -107 32 -152 67 -147 19 3 21 8 17 68 l-3
65 71 -68 c100 -97 107 -93 103 58 -5 143 -20 178 -69 158z"/>
<path d="M2705 3992 c-3 -3 -5 -20 -5 -39 0 -43 -17 -42 -60 2 -35 36 -63 44
-84 23 -22 -23 -26 -48 -16 -96 5 -26 12 -66 14 -89 7 -61 24 -83 66 -83 58 0
100 17 137 56 35 35 36 37 30 103 -7 82 -22 118 -53 124 -13 2 -26 2 -29 -1z
m-46 -118 c37 -19 46 -34 37 -68 -7 -29 -35 -41 -53 -24 -12 13 -31 108 -21
108 3 0 19 -7 37 -16z"/>
<path d="M2126 3418 c-33 -47 -13 -98 39 -98 50 0 64 30 40 87 -17 40 -55 45
-79 11z"/>
<path d="M2987 3391 c-24 -40 -21 -56 11 -80 50 -35 96 -1 77 58 -4 15 -54 51
-69 51 -1 0 -9 -13 -19 -29z"/>
<path d="M1981 3243 c-30 -21 -29 -78 3 -98 37 -25 76 -5 76 38 0 60 -38 89
-79 60z"/>
<path d="M2145 3252 c-12 -13 -3 -82 13 -102 15 -19 24 -21 51 -15 33 7 33 7
27 53 -4 29 -13 50 -24 56 -19 11 -59 16 -67 8z"/>
<path d="M1818 3243 c-14 -3 -18 -15 -18 -48 0 -38 3 -44 29 -55 61 -25 99 42
51 90 -20 20 -29 22 -62 13z"/>
<path d="M2500 3230 c-45 -45 -7 -114 56 -102 25 5 27 9 24 57 -2 33 -25 65
-47 65 -7 0 -22 -9 -33 -20z"/>
<path d="M2672 3238 c-19 -19 -15 -82 7 -102 25 -23 49 -18 73 15 19 24 19 28
4 56 -21 42 -59 56 -84 31z"/>
<path d="M1630 3224 c-30 -35 28 -98 74 -81 18 7 21 48 6 78 -13 23 -62 26
-80 3z"/>
<path d="M2842 3224 c-28 -20 -30 -69 -3 -84 69 -37 120 21 66 75 -28 29 -33
30 -63 9z"/>
<path d="M3028 3223 c-22 -6 -35 -68 -18 -88 13 -16 47 -20 74 -9 11 4 16 19
16 45 0 33 -4 41 -26 49 -14 6 -26 9 -27 9 -1 -1 -10 -3 -19 -6z"/>
<path d="M1652 3094 c-50 -34 -4 -93 60 -76 40 10 48 38 18 70 -24 26 -47 28
-78 6z"/>
<path d="M1838 3073 c-24 -6 -31 -35 -17 -69 7 -16 11 -36 10 -45 -4 -34 18
-69 43 -69 33 0 46 26 46 92 0 75 -26 104 -82 91z"/>
<path d="M2001 3061 c-16 -16 -18 -26 -11 -57 10 -42 42 -79 62 -71 23 8 37
69 24 108 -13 41 -45 50 -75 20z"/>
<path d="M2157 3055 c-6 -33 40 -125 62 -125 33 0 43 17 44 70 0 61 -16 80
-69 80 -26 0 -33 -5 -37 -25z"/>
<path d="M2689 3036 c-25 -54 19 -111 66 -86 51 27 35 103 -22 108 -27 3 -35
-1 -44 -22z"/>
<path d="M2867 3053 c-4 -3 -7 -25 -7 -48 0 -53 20 -73 58 -59 53 19 34 114
-23 114 -12 0 -25 -3 -28 -7z"/>
<path d="M3043 3047 c-46 -21 -17 -107 36 -107 15 0 32 5 39 12 13 13 16 57 4
75 -13 20 -55 31 -79 20z"/>
<path d="M2516 3034 c-36 -35 -5 -94 49 -94 53 0 72 48 35 88 -24 26 -62 29
-84 6z"/>
<path d="M1662 2958 c-18 -18 -15 -53 6 -71 24 -22 45 -21 65 1 34 37 15 82
-33 82 -14 0 -31 -5 -38 -12z"/>
<path d="M2390 2801 c0 -5 9 -7 20 -4 11 3 20 7 20 9 0 2 -9 4 -20 4 -11 0
-20 -4 -20 -9z"/>
<path d="M2420 2691 c0 -26 15 -35 17 -11 1 11 -2 22 -8 25 -5 4 -9 -3 -9 -14z"/>
<path d="M3085 2684 c-13 -13 -15 -28 -10 -68 10 -76 47 -97 90 -50 30 32 26
80 -10 112 -31 26 -48 28 -70 6z"/>
<path d="M2225 2644 c-40 -40 15 -131 64 -105 40 22 17 121 -29 121 -10 0 -26
-7 -35 -16z"/>
<path d="M2432 2622 c1 -18 6 -32 10 -32 5 0 5 12 2 28 -10 39 -15 41 -12 4z"/>
<path d="M2247 2472 c-21 -23 -22 -75 -3 -91 20 -17 87 -10 99 10 13 21 -8 75
-31 82 -9 3 -24 8 -33 11 -9 4 -22 -1 -32 -12z"/>
<path d="M2770 2464 c-8 -20 -6 -35 7 -63 35 -71 103 -44 88 35 -10 56 -77 76
-95 28z"/>
<path d="M2955 2466 c-38 -58 5 -128 69 -112 27 7 28 9 24 56 -3 27 -11 56
-18 65 -19 23 -57 18 -75 -9z"/>
<path d="M2597 2462 c-20 -22 -22 -52 -4 -76 9 -13 23 -17 52 -14 38 3 40 5
43 40 2 28 -2 40 -20 52 -29 21 -51 20 -71 -2z"/>
<path d="M3127 2462 c-10 -10 -17 -30 -17 -45 0 -29 34 -67 60 -67 24 0 60 38
60 64 0 30 -35 66 -64 66 -13 0 -30 -8 -39 -18z"/>
<path d="M2088 2459 c-12 -6 -18 -22 -18 -44 0 -28 5 -35 30 -44 43 -15 60 -5
60 35 0 23 -7 38 -22 48 -26 19 -27 19 -50 5z"/>
<path d="M1904 2446 c-21 -16 -26 -40 -14 -72 7 -18 17 -24 40 -24 40 0 70 16
70 38 -1 43 -64 81 -96 58z"/>
<path d="M1714 2413 c-18 -18 -18 -23 2 -51 18 -26 65 -30 84 -7 33 40 -49 94
-86 58z"/>
<path d="M2456 2367 c4 -86 3 -84 15 -65 9 17 2 95 -10 103 -4 2 -6 -15 -5
-38z"/>
<path d="M2083 2304 c-15 -24 -15 -29 -2 -53 8 -14 27 -30 43 -36 24 -8 31 -6
47 14 24 30 24 56 -1 81 -28 28 -66 26 -87 -6z"/>
<path d="M2622 2313 c-25 -10 -34 -53 -17 -79 20 -32 89 -34 105 -5 15 29 12
49 -10 71 -19 19 -50 24 -78 13z"/>
<path d="M2789 2293 c-16 -42 -3 -93 23 -93 20 0 20 -1 4 -19 -13 -14 -16 -28
-11 -50 7 -34 12 -36 49 -19 30 13 41 40 27 66 -7 13 -7 31 -1 52 14 48 -6 84
-48 88 -27 3 -34 -1 -43 -25z"/>
<path d="M1732 2297 c-6 -6 -13 -24 -17 -38 -8 -31 9 -48 58 -56 30 -4 38 -1
51 20 19 28 9 70 -19 81 -27 10 -62 7 -73 -7z"/>
<path d="M1915 2280 c-15 -30 -15 -33 1 -51 23 -26 75 -25 92 1 20 33 -4 74
-45 78 -27 3 -34 -2 -48 -28z"/>
<path d="M2254 2286 c-10 -42 3 -72 38 -87 55 -23 78 -9 78 47 0 39 -17 54
-69 61 -37 5 -41 3 -47 -21z"/>
<path d="M2483 2285 c-3 -9 -3 -18 -1 -21 3 -3 8 4 11 16 6 23 -1 27 -10 5z"/>
<path d="M2964 2275 c-21 -33 -7 -75 31 -94 27 -13 30 -12 52 13 28 33 30 67
5 89 -28 25 -69 21 -88 -8z"/>
<path d="M3141 2274 c-32 -41 -24 -77 22 -101 67 -35 116 69 54 112 -31 22
-53 18 -76 -11z"/>
<path d="M2463 2223 c4 -32 19 -39 37 -18 8 10 9 15 2 15 -6 0 -9 7 -6 15 4
10 0 15 -15 15 -18 0 -21 -5 -18 -27z"/>
<path d="M2481 2181 c-12 -8 -12 -11 0 -23 8 -7 21 -14 28 -16 12 -3 12 0 2
12 -7 8 -10 20 -6 26 8 12 -5 13 -24 1z"/>
<path d="M2110 2150 c-11 -28 -11 -33 8 -50 29 -28 60 -25 74 5 16 36 -6 75
-42 75 -21 0 -31 -7 -40 -30z"/>
<path d="M2645 2168 c-44 -25 -49 -53 -17 -90 20 -24 43 -23 70 2 28 26 28 57
0 81 -24 22 -26 22 -53 7z"/>
<path d="M1938 2159 c-37 -21 -8 -99 37 -99 44 0 73 68 43 98 -15 15 -57 15
-80 1z"/>
<path d="M1738 2149 c-42 -24 -3 -99 52 -99 30 0 60 22 60 45 0 8 -4 25 -10
39 -8 22 -16 26 -47 26 -21 0 -46 -5 -55 -11z"/>
<path d="M2512 1968 c6 -16 55 -21 76 -9 16 10 15 11 -3 12 -11 1 -33 3 -48 5
-18 2 -27 -1 -25 -8z"/>
<path d="M3185 1830 c-4 -16 -3 -35 1 -42 4 -7 7 -31 7 -55 -1 -51 13 -65 64
-61 41 3 41 3 29 98 -2 14 -4 31 -5 38 -2 21 -40 52 -65 52 -19 0 -26 -7 -31
-30z"/>
<path d="M3040 1803 c-41 -14 -53 -74 -24 -118 18 -27 70 -35 92 -13 15 15 15
58 1 95 -15 39 -33 49 -69 36z"/>
<path d="M2856 1754 c-38 -37 -7 -97 47 -92 44 4 55 29 34 72 -19 40 -53 48
-81 20z"/>
<path d="M2673 1732 c-43 -43 40 -96 92 -59 17 13 17 15 -1 45 -15 26 -24 32
-48 30 -16 -1 -35 -9 -43 -16z"/>
<path d="M2352 1718 c-20 -20 -15 -66 8 -78 34 -18 74 -9 78 18 8 51 -53 93
-86 60z"/>
<path d="M2208 1702 c-13 -2 -18 -13 -18 -38 0 -31 3 -34 29 -34 34 0 55 22
46 48 -6 21 -29 30 -57 24z"/>
<path d="M2051 1648 c-9 -24 4 -52 20 -42 12 7 11 51 -1 59 -6 3 -14 -4 -19
-17z"/>
<path d="M3052 1594 c-25 -17 -31 -71 -10 -92 21 -21 66 -14 84 13 21 32 12
68 -21 83 -32 15 -26 15 -53 -4z"/>
<path d="M3215 1594 c-29 -29 1 -103 42 -104 15 0 63 21 64 29 6 42 3 57 -13
73 -22 22 -71 23 -93 2z"/>
<path d="M2703 1590 c-16 -7 -23 -18 -23 -38 0 -47 19 -64 70 -60 44 3 45 4
48 39 5 59 -35 83 -95 59z"/>
<path d="M2871 1581 c-19 -34 -13 -69 14 -87 55 -36 106 17 74 75 -19 34 -73
41 -88 12z"/>
<path d="M1860 1570 c-25 -25 -26 -68 -2 -86 28 -21 79 -17 92 7 20 36 -18 99
-59 99 -6 0 -20 -9 -31 -20z"/>
<path d="M2042 1571 c-8 -5 -12 -23 -10 -47 3 -39 3 -39 51 -42 45 -3 47 -2
47 22 0 15 -9 35 -19 45 -11 11 -18 21 -16 23 8 8 -41 7 -53 -1z"/>
<path d="M2383 1570 c-26 -10 -31 -46 -10 -73 17 -24 86 -35 98 -16 32 51 -29
112 -88 89z"/>
<path d="M2224 1562 c-16 -6 -20 -15 -20 -47 1 -43 15 -52 60 -41 19 5 22 11
18 38 -4 33 -19 59 -31 57 -3 -1 -15 -4 -27 -7z"/>
<path d="M2226 1414 c-11 -29 -6 -91 8 -103 8 -7 30 -11 48 -9 32 3 33 5 36
51 3 41 0 48 -20 56 -57 21 -66 22 -72 5z"/>
<path d="M2896 1417 c-24 -18 -29 -67 -9 -89 9 -10 28 -18 43 -18 51 0 77 63
40 100 -23 23 -49 26 -74 7z"/>
<path d="M3066 1408 c-20 -29 -20 -41 2 -67 19 -24 60 -35 81 -22 17 11 24 67
11 92 -15 28 -74 26 -94 -3z"/>
<path d="M2065 1406 c-21 -15 -25 -67 -5 -90 27 -34 90 -9 90 35 0 20 -41 69
-58 69 -4 0 -17 -6 -27 -14z"/>
<path d="M2706 1398 c-31 -44 -17 -85 30 -94 46 -8 76 17 73 61 -4 42 -16 55
-55 55 -23 0 -38 -7 -48 -22z"/>
<path d="M1872 1398 c-13 -13 -16 -56 -4 -75 13 -21 61 -34 83 -22 16 8 19 19
17 57 l-3 47 -40 3 c-23 2 -46 -3 -53 -10z"/>
<path d="M2400 1356 c0 -44 1 -46 29 -46 36 0 53 20 49 57 -3 24 -8 28 -40 31
l-38 3 0 -45z"/>
<path d="M7666 2526 c21 -15 30 -14 19 3 -3 6 -14 11 -23 11 -13 0 -13 -2 4
-14z"/>
</g>
</svg>
